<?xml version="1.0" standalone="no"?>
<!DOCTYPE svg PUBLIC "-//W3C//DTD SVG 20010904//EN"
 "http://www.w3.org/TR/2001/REC-SVG-20010904/DTD/svg10.dtd">
<svg version="1.0" xmlns="http://www.w3.org/2000/svg"
 width="400.000000pt" height="300.000000pt" viewBox="0 0 400.000000 300.000000"
 preserveAspectRatio="xMidYMid meet">

<g transform="translate(0.000000,300.000000) scale(0.100000,-0.100000)"
fill="#000000" stroke="none">
<path d="M0 1500 l0 -1500 2000 0 2000 0 0 1500 0 1500 -2000 0 -2000 0 0
-1500z m1132 450 c137 -20 266 -90 345 -189 25 -32 91 -149 150 -268 68 -139
115 -222 134 -238 56 -46 140 -42 189 10 l23 25 -157 322 c-87 178 -161 329
-164 337 -4 12 16 13 129 8 157 -7 236 -27 325 -85 112 -73 151 -126 278 -380
111 -220 119 -233 158 -253 64 -32 146 -13 181 42 7 11 -34 101 -152 337 -89
177 -161 326 -161 332 0 6 122 10 350 10 193 0 350 -2 350 -5 0 -3 -81 -168
-181 -366 -158 -316 -187 -368 -232 -414 -176 -175 -460 -174 -638 4 l-59 60
-52 -55 c-170 -180 -463 -185 -642 -10 -49 47 -72 89 -235 414 -100 199 -181
364 -181 367 0 9 172 5 242 -5z"/>
</g>
</svg>
